<svg xmlns="http://www.w3.org/2000/svg" width="616.012" height="240.7" viewBox="0 0 616.012 240.7">
  <g id="Group_111" data-name="Group 111" transform="translate(-1300.18 -1819.231)">
    <g id="Group_106" data-name="Group 106" transform="translate(1268.239 1794.415)" opacity="0.52">
      <path id="Path_93" data-name="Path 93" d="M86.165,27.785,54.386,87.271,34,57.528S53.787,46.042,50.189,27.785Z" transform="translate(558.596 0.151)" fill="none" stroke="#00d11c" stroke-miterlimit="10" stroke-width="3"/>
      <path id="Path_94" data-name="Path 94" d="M57.75,27.79c0,12.9,10.721,23.368,23.942,23.368s23.942-10.464,23.942-23.368Z" transform="translate(496.406 0.155)" fill="none" stroke="#00d11c" stroke-miterlimit="10" stroke-width="3"/>
      <path id="Path_95" data-name="Path 95" d="M115.676,116.748s-4.5-14.923,15.74-28.53L112.528,59.25l-33.278,57.5Z" transform="translate(431.95 23.928)" fill="#00d11c" stroke="#00d11c" stroke-miterlimit="10" stroke-width="3"/>
      <path id="Path_96" data-name="Path 96" d="M110.436,27.785,89.75,57.528s22.035,10.722,17.988,29.743l35.976-4.243Z" transform="translate(400.764 0.151)" fill="none" stroke="#00d11c" stroke-miterlimit="10" stroke-width="3"/>
      <ellipse id="Ellipse_6" data-name="Ellipse 6" cx="22.035" cy="21.507" rx="22.035" ry="21.507" transform="translate(454.088 65.914)" fill="none" stroke="#00d11c" stroke-miterlimit="10" stroke-width="3"/>
      <path id="Path_97" data-name="Path 97" d="M162.189,116.748S172.532,95.68,146,89.974L165.787,59.25l35.526,57.5Z" transform="translate(241.982 23.928)" fill="none" stroke="#00d11c" stroke-miterlimit="10" stroke-width="3"/>
      <path id="Path_98" data-name="Path 98" d="M199.065,27.794l-36.426-.009S163.538,53.1,146,57.528l17.538,25.5Z" transform="translate(244.231 0.151)" fill="none" stroke="#00d11c" stroke-miterlimit="10" stroke-width="3"/>
      <path id="Path_99" data-name="Path 99" d="M226.991,88.294l-35.3-1.024c4.2-16.826-16.189-29.743-16.189-29.743l17.538-29.743,33,57.428.491.855.691,1.2L246.1,55.407a29.091,29.091,0,0,0,32.378,2.121" transform="translate(111.75 0.151)" fill="none" stroke="#00d11c" stroke-miterlimit="10" stroke-width="3"/>
      <path id="Path_100" data-name="Path 100" d="M223.912,119.455,204.125,85.806s18.087-9.812,17.538-23.556l35.9.732S251.943,110.97,223.912,119.455Z" transform="translate(81.176 26.195)" fill="#00d11c" stroke="#00d11c" stroke-miterlimit="10" stroke-width="3"/>
      <path id="Path_101" data-name="Path 101" d="M223,27.785l18.288,30.256s21.884-8.455,32.078-.513L290.9,27.785Z" transform="translate(13.883 0.151)" fill="none" stroke="#00d11c" stroke-miterlimit="10" stroke-width="3"/>
      <ellipse id="Ellipse_7" data-name="Ellipse 7" cx="21.586" cy="21.068" rx="21.586" ry="21.068" transform="translate(249.25 63.866)" fill="none" stroke="#00d11c" stroke-miterlimit="10" stroke-width="3"/>
      <path id="Path_102" data-name="Path 102" d="M281.305,120.356,313.084,60.87,333.47,90.613s-19.787,11.486-16.189,29.743Z" transform="translate(-133.561 25.153)" fill="none" stroke="#00d11c" stroke-miterlimit="10" stroke-width="3"/>
      <path id="Path_103" data-name="Path 103" d="M307.819,104.805c0-12.9-10.721-23.368-23.942-23.368S259.935,91.9,259.935,104.805Z" transform="translate(-69.47 40.695)" fill="#00d11c" stroke="#00d11c" stroke-miterlimit="10" stroke-width="3"/>
      <path id="Path_104" data-name="Path 104" d="M359.692,121.038s4.695-15.676-16.434-29.969l19.72-30.431,34.747,60.4Z" transform="translate(-309.258 24.977)" fill="#00d11c" stroke="#00d11c" stroke-miterlimit="10" stroke-width="3"/>
      <path id="Path_105" data-name="Path 105" d="M366,27.585l21.6,31.244S364.59,70.093,368.815,90.073l-37.564-4.458Z" transform="translate(-277.531 0)" fill="none" stroke="#00d11c" stroke-miterlimit="10" stroke-width="3"/>
      <ellipse id="Ellipse_8" data-name="Ellipse 8" cx="23.008" cy="22.593" rx="23.008" ry="22.593" transform="translate(102.084 67.48)" fill="none" stroke="#00d11c" stroke-miterlimit="10" stroke-width="3"/>
      <path id="Path_106" data-name="Path 106" d="M395.688,58.04,367.507,89.921,340.426,48.353H314.344L303.65,71.615l-31.479-43.83L250.583,58.678" transform="translate(-140.518 0.151)" fill="none" stroke="#00d11c" stroke-miterlimit="10" stroke-width="3"/>
      <line id="Line_4" data-name="Line 4" x1="27.081" y2="25.693" transform="translate(199.909 90.073)" fill="none" stroke="#00d11c" stroke-miterlimit="10" stroke-width="3"/>
      <line id="Line_5" data-name="Line 5" x1="59.277" y2="0.508" transform="translate(88.467 145.508)" fill="none" stroke="#00d11c" stroke-miterlimit="10" stroke-width="3"/>
      <line id="Line_6" data-name="Line 6" x1="36.974" y2="20.568" transform="translate(199.909 27.936)" fill="none" stroke="#00d11c" stroke-miterlimit="10" stroke-width="3"/>
      <path id="Path_107" data-name="Path 107" d="M381.164,48.5,338.991,27.936,295.8,27.585" transform="translate(-207.338 0)" fill="none" stroke="#00d11c" stroke-miterlimit="10" stroke-width="3"/>
    </g>
    <g id="Group_107" data-name="Group 107" transform="translate(1340.964 1912.415)" opacity="0.54">
      <path id="Path_93-2" data-name="Path 93" d="M34,27.785,62.06,87.271l18-29.743S62.589,46.042,65.765,27.785Z" transform="translate(0 0.151)" fill="none" stroke="#00d11c" stroke-miterlimit="10" stroke-width="3"/>
      <path id="Path_94-2" data-name="Path 94" d="M100.029,27.79c0,12.9-9.466,23.368-21.14,23.368S57.75,40.694,57.75,27.79Z" transform="translate(13.971 0.155)" fill="none" stroke="#00d11c" stroke-miterlimit="10" stroke-width="3"/>
      <path id="Path_95-2" data-name="Path 95" d="M93.147,116.748s3.971-14.923-13.9-28.53L95.927,59.25l29.383,57.5Z" transform="translate(26.619 23.928)" fill="#00d11c" stroke="#00d11c" stroke-miterlimit="10" stroke-width="3"/>
      <path id="Path_96-2" data-name="Path 96" d="M119.133,27.785,137.4,57.528S117.942,68.25,121.515,87.271L89.75,83.027Z" transform="translate(32.795 0.151)" fill="none" stroke="#00d11c" stroke-miterlimit="10" stroke-width="3"/>
      <ellipse id="Ellipse_6-2" data-name="Ellipse 6" cx="19.456" cy="21.507" rx="19.456" ry="21.507" transform="translate(163.443 65.914)" fill="none" stroke="#00d11c" stroke-miterlimit="10" stroke-width="3"/>
      <path id="Path_97-2" data-name="Path 97" d="M180.545,116.748s-9.133-21.068,14.294-26.774L177.368,59.25,146,116.748Z" transform="translate(65.885 23.928)" fill="none" stroke="#00d11c" stroke-miterlimit="10" stroke-width="3"/>
      <path id="Path_98-2" data-name="Path 98" d="M146,27.794l32.162-.009s-.794,25.312,14.691,29.743l-15.486,25.5Z" transform="translate(65.885 0.151)" fill="none" stroke="#00d11c" stroke-miterlimit="10" stroke-width="3"/>
      <path id="Path_99-2" data-name="Path 99" d="M220.964,88.294l31.17-1.024c-3.705-16.826,14.294-29.743,14.294-29.743L250.942,27.785,221.809,85.213l-.434.855-.61,1.2L204.089,55.407C189.4,67.727,175.5,57.528,175.5,57.528" transform="translate(83.239 0.151)" fill="none" stroke="#00d11c" stroke-miterlimit="10" stroke-width="3"/>
      <path id="Path_100-2" data-name="Path 100" d="M233.838,119.455l17.471-33.649s-15.97-9.812-15.486-23.556l-31.7.732S209.088,110.97,233.838,119.455Z" transform="translate(100.078 26.195)" fill="#00d11c" stroke="#00d11c" stroke-miterlimit="10" stroke-width="3"/>
      <path id="Path_101-2" data-name="Path 101" d="M282.957,27.785,266.809,58.041s-19.323-8.455-28.323-.513L223,27.785Z" transform="translate(111.181 0.151)" fill="none" stroke="#00d11c" stroke-miterlimit="10" stroke-width="3"/>
      <ellipse id="Ellipse_7-2" data-name="Ellipse 7" cx="19.059" cy="21.068" rx="19.059" ry="21.068" transform="translate(345.1 63.866)" fill="none" stroke="#00d11c" stroke-miterlimit="10" stroke-width="3"/>
      <path id="Path_102-2" data-name="Path 102" d="M327.365,120.356,299.3,60.87l-18,29.743S298.776,102.1,295.6,120.356Z" transform="translate(145.48 25.153)" fill="none" stroke="#00d11c" stroke-miterlimit="10" stroke-width="3"/>
      <path id="Path_103-2" data-name="Path 103" d="M259.935,104.805c0-12.9,9.466-23.368,21.14-23.368s21.14,10.464,21.14,23.368Z" transform="translate(132.909 40.695)" fill="#00d11c" stroke="#00d11c" stroke-miterlimit="10" stroke-width="3"/>
      <path id="Path_104-2" data-name="Path 104" d="M376.84,121.038s-4.145-15.676,14.51-29.969L373.938,60.638l-30.68,60.4Z" transform="translate(181.924 24.977)" fill="#00d11c" stroke="#00d11c" stroke-miterlimit="10" stroke-width="3"/>
      <path id="Path_105-2" data-name="Path 105" d="M350.321,27.585l-19.07,31.244s20.314,11.264,16.583,31.244L381,85.615Z" transform="translate(174.861 0)" fill="none" stroke="#00d11c" stroke-miterlimit="10" stroke-width="3"/>
      <ellipse id="Ellipse_8-2" data-name="Ellipse 8" cx="20.315" cy="22.593" rx="20.315" ry="22.593" transform="translate(472.531 67.48)" fill="none" stroke="#00d11c" stroke-miterlimit="10" stroke-width="3"/>
      <path id="Path_106-2" data-name="Path 106" d="M250.583,58.04l24.883,31.882,23.911-41.569h23.03l9.442,23.263,27.795-43.83L378.7,58.678" transform="translate(127.407 0.151)" fill="none" stroke="#00d11c" stroke-miterlimit="10" stroke-width="3"/>
      <line id="Line_4-2" data-name="Line 4" x2="23.911" y2="25.693" transform="translate(402.873 90.073)" fill="none" stroke="#00d11c" stroke-miterlimit="10" stroke-width="3"/>
      <line id="Line_5-2" data-name="Line 5" x2="52.339" y2="0.508" transform="translate(472.844 145.508)" fill="none" stroke="#00d11c" stroke-miterlimit="10" stroke-width="3"/>
      <line id="Line_6-2" data-name="Line 6" x2="32.647" y2="20.568" transform="translate(394.138 27.936)" fill="none" stroke="#00d11c" stroke-miterlimit="10" stroke-width="3"/>
      <path id="Path_107-2" data-name="Path 107" d="M295.805,48.5l37.237-20.568,38.132-.351" transform="translate(154.009 0)" fill="none" stroke="#00d11c" stroke-miterlimit="10" stroke-width="3"/>
    </g>
  </g>
</svg>
