<svg xmlns="http://www.w3.org/2000/svg" xmlns:xlink="http://www.w3.org/1999/xlink" width="118.147" height="236.482" viewBox="0 0 118.147 236.482">
  <defs>
    <linearGradient id="linear-gradient" x1="0.291" y1="1" x2="0.829" y2="1" gradientUnits="objectBoundingBox">
      <stop offset="0" stop-color="#000027"/>
      <stop offset="0.736" stop-color="#049518"/>
      <stop offset="1" stop-color="#00d11c"/>
    </linearGradient>
  </defs>
  <g id="Group_105" data-name="Group 105" transform="translate(1455 -3137)">
    <path id="Path_87" data-name="Path 87" d="M167.5-374.42c-4.193,1.845-8.471,6.626-9.645,10.735-.671,2.181-.839,17.025-.671,47.3l.252,44.031,2.348,3.522a17.49,17.49,0,0,0,14.341,8.387c5.871.419,9.393-.755,13.838-4.529,6.039-5.032,5.955-4.026,5.955-53.172,0-41.1-.168-44.282-1.593-47.386C188.136-374.587,176.73-378.613,167.5-374.42Z" transform="translate(-1612.128 3567.528)" fill="#000027"/>
    <path id="Path_88" data-name="Path 88" d="M204-191.165c0,.335,15.683,22.644,18.451,26.251,1.258,1.593,1.761,1.09,10.819-11.658,5.2-7.3,9.645-13.671,9.813-14.09.252-.5-6.542-.839-19.374-.839C212.89-191.5,204-191.332,204-191.165Z" transform="translate(-1619.689 3537.751)" fill="url(#linear-gradient)"/>
    <path id="Path_90" data-name="Path 90" d="M264.9-439.9a18.766,18.766,0,0,0-9.309,7.294c-1.51,2.477-1.594,4.817-1.594,61.246,0,55.672.084,58.838,1.594,61.453,6.542,11.561,27.173,11.561,33.715,0,1.51-2.615,1.594-5.781,1.594-61.246s-.084-58.631-1.594-61.246c-3.1-5.505-9.309-8.6-17.025-8.6A30.857,30.857,0,0,0,264.9-439.9Z" transform="translate(-1668.173 3608.571)" fill="#049518"/>
    <path id="Path_91" data-name="Path 91" d="M264.9-439.658a19.882,19.882,0,0,0-9.309,8.89c-1.51,3.019-1.594,5.871-1.594,74.643,0,67.849.084,71.707,1.594,74.894,6.542,14.09,27.173,14.09,33.715,0,1.51-3.187,1.594-7.045,1.594-74.643s-.084-71.456-1.594-74.643C286.205-437.226,280-441,272.283-441A25.782,25.782,0,0,0,264.9-439.658Z" transform="translate(-1627.755 3578)" fill="#00d11c"/>
    <g id="Path_92" data-name="Path 92" transform="translate(-1447.563 3302.461)" fill="#000027">
      <path d="M 71.58383178710938 42.03178405761719 L 31.58986663818359 42.03178405761719 L 2.433108329772949 5.504042625427246 C 2.825694561004639 5.667434215545654 3.270004034042358 5.840614318847656 3.760802984237671 6.014157295227051 C 5.636628150939941 6.677444934844971 8.572928428649902 7.468120098114014 11.90881538391113 7.468120098114014 C 17.56672859191895 7.468120098114014 25.48791313171387 5.151572227478027 31.41290092468262 -5.74641752243042 C 34.24384307861328 -1.888024806976318 42.29004287719727 7.590482711791992 52.94156646728516 7.590482711791992 C 60.19170761108398 7.590482711791992 67.14422607421875 3.15870475769043 73.61806488037109 -5.586063861846924 C 77.24085998535156 5.48961067199707 87.36989593505859 7.175819873809814 93.19252777099609 7.175819873809814 C 94.73342895507813 7.175819873809814 96.01461029052734 7.061638832092285 96.87864685058594 6.954284191131592 L 71.58383178710938 42.03178405761719 Z" stroke="none"/>
      <path d="M 31.47490692138672 -4.829479217529297 C 25.47653961181641 5.702949523925781 17.58368682861328 7.968118667602539 11.90879821777344 7.968118667602539 C 8.7939453125 7.968118667602539 6.025276184082031 7.313383102416992 3.960952758789063 6.616670608520508 L 31.83050537109375 41.53178405761719 L 71.32794952392578 41.53178405761719 L 95.82098388671875 7.566158294677734 C 95.07771301269531 7.628698348999023 94.18745422363281 7.675825119018555 93.19252014160156 7.675825119018555 C 87.39072418212891 7.675825119018555 77.41090393066406 6.035760879516602 73.45508575439453 -4.538047790527344 C 67.04104614257813 3.844196319580078 60.14685440063477 8.090478897094727 52.94157409667969 8.090478897094727 C 42.60005187988281 8.090478897094727 34.69961929321289 -0.6055679321289063 31.47490692138672 -4.829479217529297 M 31.34921264648438 -6.693119049072266 C 34.54543304443359 -2.127124786376953 42.65977478027344 7.090482711791992 52.94157409667969 7.090482711791992 C 59.28600692749023 7.090482711791992 66.45487213134766 3.582439422607422 73.80526733398438 -6.693119049072266 C 77.02478790283203 4.843694686889648 87.11222839355469 6.675819396972656 93.19252014160156 6.675819396972656 C 96.02114868164063 6.675819396972656 97.98158264160156 6.279638290405273 97.98158264160156 6.279638290405273 L 71.8397216796875 42.53178405761719 L 31.34921264648438 42.53178405761719 L 0.6865234375 4.117412567138672 C 0.6865234375 4.117412567138672 5.588302612304688 6.968124389648438 11.90880584716797 6.968124389648438 C 18.11917114257813 6.968124389648438 25.69919586181641 4.21723747253418 31.34921264648438 -6.693119049072266 Z" stroke="none" fill="#1f1f21"/>
    </g>
  </g>
</svg>
