<svg xmlns="http://www.w3.org/2000/svg" width="122.963" height="1041.594" viewBox="0 0 122.963 1041.594">
  <g id="Group_112" data-name="Group 112" transform="translate(4.114 -4546.212)">
    <g id="Group_108" data-name="Group 108" transform="translate(143.402 4514.578) rotate(90)" opacity="0.54">
      <path id="Path_93" data-name="Path 93" d="M34,27.785,62.06,87.271l18-29.743S62.589,46.042,65.765,27.785Z" transform="translate(0 0.151)" fill="none" stroke="#00d11c" stroke-miterlimit="10" stroke-width="3"/>
      <path id="Path_94" data-name="Path 94" d="M100.029,27.79c0,12.9-9.466,23.368-21.14,23.368S57.75,40.694,57.75,27.79Z" transform="translate(13.971 0.155)" fill="none" stroke="#00d11c" stroke-miterlimit="10" stroke-width="3"/>
      <path id="Path_95" data-name="Path 95" d="M93.147,116.748s3.971-14.923-13.9-28.53L95.927,59.25l29.383,57.5Z" transform="translate(26.619 23.928)" fill="#00d11c" stroke="#00d11c" stroke-miterlimit="10" stroke-width="3"/>
      <path id="Path_96" data-name="Path 96" d="M119.133,27.785,137.4,57.528S117.942,68.25,121.515,87.271L89.75,83.027Z" transform="translate(32.795 0.151)" fill="none" stroke="#00d11c" stroke-miterlimit="10" stroke-width="3"/>
      <ellipse id="Ellipse_6" data-name="Ellipse 6" cx="19.456" cy="21.507" rx="19.456" ry="21.507" transform="translate(163.443 65.914)" fill="none" stroke="#00d11c" stroke-miterlimit="10" stroke-width="3"/>
      <path id="Path_97" data-name="Path 97" d="M180.545,116.748s-9.133-21.068,14.294-26.774L177.368,59.25,146,116.748Z" transform="translate(65.885 23.928)" fill="none" stroke="#00d11c" stroke-miterlimit="10" stroke-width="3"/>
      <path id="Path_98" data-name="Path 98" d="M146,27.794l32.162-.009s-.794,25.312,14.691,29.743l-15.486,25.5Z" transform="translate(65.885 0.151)" fill="none" stroke="#00d11c" stroke-miterlimit="10" stroke-width="3"/>
      <path id="Path_99" data-name="Path 99" d="M220.964,88.294l31.17-1.024c-3.705-16.826,14.294-29.743,14.294-29.743L250.942,27.785,221.809,85.213l-.434.855-.61,1.2L204.089,55.407C189.4,67.727,175.5,57.528,175.5,57.528" transform="translate(83.239 0.151)" fill="none" stroke="#00d11c" stroke-miterlimit="10" stroke-width="3"/>
      <path id="Path_100" data-name="Path 100" d="M233.838,119.455l17.471-33.649s-15.97-9.812-15.486-23.556l-31.7.732S209.088,110.97,233.838,119.455Z" transform="translate(100.078 26.195)" fill="#00d11c" stroke="#00d11c" stroke-miterlimit="10" stroke-width="3"/>
      <path id="Path_101" data-name="Path 101" d="M282.957,27.785,266.809,58.041s-19.323-8.455-28.323-.513L223,27.785Z" transform="translate(111.181 0.151)" fill="none" stroke="#00d11c" stroke-miterlimit="10" stroke-width="3"/>
      <ellipse id="Ellipse_7" data-name="Ellipse 7" cx="19.059" cy="21.068" rx="19.059" ry="21.068" transform="translate(345.1 63.866)" fill="none" stroke="#00d11c" stroke-miterlimit="10" stroke-width="3"/>
      <path id="Path_102" data-name="Path 102" d="M327.365,120.356,299.3,60.87l-18,29.743S298.776,102.1,295.6,120.356Z" transform="translate(145.48 25.153)" fill="none" stroke="#00d11c" stroke-miterlimit="10" stroke-width="3"/>
      <path id="Path_103" data-name="Path 103" d="M259.935,104.805c0-12.9,9.466-23.368,21.14-23.368s21.14,10.464,21.14,23.368Z" transform="translate(132.909 40.695)" fill="#00d11c" stroke="#00d11c" stroke-miterlimit="10" stroke-width="3"/>
      <path id="Path_104" data-name="Path 104" d="M376.84,121.038s-4.145-15.676,14.51-29.969L373.938,60.638l-30.68,60.4Z" transform="translate(181.924 24.977)" fill="#00d11c" stroke="#00d11c" stroke-miterlimit="10" stroke-width="3"/>
      <path id="Path_105" data-name="Path 105" d="M350.321,27.585l-19.07,31.244s20.314,11.264,16.583,31.244L381,85.615Z" transform="translate(174.861 0)" fill="none" stroke="#00d11c" stroke-miterlimit="10" stroke-width="3"/>
      <ellipse id="Ellipse_8" data-name="Ellipse 8" cx="20.315" cy="22.593" rx="20.315" ry="22.593" transform="translate(472.531 67.48)" fill="none" stroke="#00d11c" stroke-miterlimit="10" stroke-width="3"/>
      <path id="Path_106" data-name="Path 106" d="M250.583,58.04l24.883,31.882,23.911-41.569h23.03l9.442,23.263,27.795-43.83L378.7,58.678" transform="translate(127.407 0.151)" fill="none" stroke="#00d11c" stroke-miterlimit="10" stroke-width="3"/>
      <line id="Line_4" data-name="Line 4" x2="23.911" y2="25.693" transform="translate(402.873 90.073)" fill="none" stroke="#00d11c" stroke-miterlimit="10" stroke-width="3"/>
      <line id="Line_5" data-name="Line 5" x2="52.339" y2="0.508" transform="translate(472.844 145.508)" fill="none" stroke="#00d11c" stroke-miterlimit="10" stroke-width="3"/>
      <line id="Line_6" data-name="Line 6" x2="32.647" y2="20.568" transform="translate(394.138 27.936)" fill="none" stroke="#00d11c" stroke-miterlimit="10" stroke-width="3"/>
      <path id="Path_107" data-name="Path 107" d="M295.805,48.5l37.237-20.568,38.132-.351" transform="translate(154.009 0)" fill="none" stroke="#00d11c" stroke-miterlimit="10" stroke-width="3"/>
    </g>
    <g id="Group_109" data-name="Group 109" transform="translate(143.402 5012.578) rotate(90)" opacity="0.54">
      <path id="Path_93-2" data-name="Path 93" d="M34,27.785,62.06,87.271l18-29.743S62.589,46.042,65.765,27.785Z" transform="translate(0 0.151)" fill="none" stroke="#00d11c" stroke-miterlimit="10" stroke-width="3"/>
      <path id="Path_94-2" data-name="Path 94" d="M100.029,27.79c0,12.9-9.466,23.368-21.14,23.368S57.75,40.694,57.75,27.79Z" transform="translate(13.971 0.155)" fill="none" stroke="#00d11c" stroke-miterlimit="10" stroke-width="3"/>
      <path id="Path_95-2" data-name="Path 95" d="M93.147,116.748s3.971-14.923-13.9-28.53L95.927,59.25l29.383,57.5Z" transform="translate(26.619 23.928)" fill="#00d11c" stroke="#00d11c" stroke-miterlimit="10" stroke-width="3"/>
      <path id="Path_96-2" data-name="Path 96" d="M119.133,27.785,137.4,57.528S117.942,68.25,121.515,87.271L89.75,83.027Z" transform="translate(32.795 0.151)" fill="none" stroke="#00d11c" stroke-miterlimit="10" stroke-width="3"/>
      <ellipse id="Ellipse_6-2" data-name="Ellipse 6" cx="19.456" cy="21.507" rx="19.456" ry="21.507" transform="translate(163.443 65.914)" fill="none" stroke="#00d11c" stroke-miterlimit="10" stroke-width="3"/>
      <path id="Path_97-2" data-name="Path 97" d="M180.545,116.748s-9.133-21.068,14.294-26.774L177.368,59.25,146,116.748Z" transform="translate(65.885 23.928)" fill="none" stroke="#00d11c" stroke-miterlimit="10" stroke-width="3"/>
      <path id="Path_98-2" data-name="Path 98" d="M146,27.794l32.162-.009s-.794,25.312,14.691,29.743l-15.486,25.5Z" transform="translate(65.885 0.151)" fill="none" stroke="#00d11c" stroke-miterlimit="10" stroke-width="3"/>
      <path id="Path_99-2" data-name="Path 99" d="M220.964,88.294l31.17-1.024c-3.705-16.826,14.294-29.743,14.294-29.743L250.942,27.785,221.809,85.213l-.434.855-.61,1.2L204.089,55.407C189.4,67.727,175.5,57.528,175.5,57.528" transform="translate(83.239 0.151)" fill="none" stroke="#00d11c" stroke-miterlimit="10" stroke-width="3"/>
      <path id="Path_100-2" data-name="Path 100" d="M233.838,119.455l17.471-33.649s-15.97-9.812-15.486-23.556l-31.7.732S209.088,110.97,233.838,119.455Z" transform="translate(100.078 26.195)" fill="#00d11c" stroke="#00d11c" stroke-miterlimit="10" stroke-width="3"/>
      <path id="Path_101-2" data-name="Path 101" d="M282.957,27.785,266.809,58.041s-19.323-8.455-28.323-.513L223,27.785Z" transform="translate(111.181 0.151)" fill="none" stroke="#00d11c" stroke-miterlimit="10" stroke-width="3"/>
      <ellipse id="Ellipse_7-2" data-name="Ellipse 7" cx="19.059" cy="21.068" rx="19.059" ry="21.068" transform="translate(345.1 63.866)" fill="none" stroke="#00d11c" stroke-miterlimit="10" stroke-width="3"/>
      <path id="Path_102-2" data-name="Path 102" d="M327.365,120.356,299.3,60.87l-18,29.743S298.776,102.1,295.6,120.356Z" transform="translate(145.48 25.153)" fill="none" stroke="#00d11c" stroke-miterlimit="10" stroke-width="3"/>
      <path id="Path_103-2" data-name="Path 103" d="M259.935,104.805c0-12.9,9.466-23.368,21.14-23.368s21.14,10.464,21.14,23.368Z" transform="translate(132.909 40.695)" fill="#00d11c" stroke="#00d11c" stroke-miterlimit="10" stroke-width="3"/>
      <path id="Path_104-2" data-name="Path 104" d="M376.84,121.038s-4.145-15.676,14.51-29.969L373.938,60.638l-30.68,60.4Z" transform="translate(181.924 24.977)" fill="#00d11c" stroke="#00d11c" stroke-miterlimit="10" stroke-width="3"/>
      <path id="Path_105-2" data-name="Path 105" d="M350.321,27.585l-19.07,31.244s20.314,11.264,16.583,31.244L381,85.615Z" transform="translate(174.861 0)" fill="none" stroke="#00d11c" stroke-miterlimit="10" stroke-width="3"/>
      <ellipse id="Ellipse_8-2" data-name="Ellipse 8" cx="20.315" cy="22.593" rx="20.315" ry="22.593" transform="translate(472.531 67.48)" fill="none" stroke="#00d11c" stroke-miterlimit="10" stroke-width="3"/>
      <path id="Path_106-2" data-name="Path 106" d="M250.583,58.04l24.883,31.882,23.911-41.569h23.03l9.442,23.263,27.795-43.83L378.7,58.678" transform="translate(127.407 0.151)" fill="none" stroke="#00d11c" stroke-miterlimit="10" stroke-width="3"/>
      <line id="Line_4-2" data-name="Line 4" x2="23.911" y2="25.693" transform="translate(402.873 90.073)" fill="none" stroke="#00d11c" stroke-miterlimit="10" stroke-width="3"/>
      <line id="Line_5-2" data-name="Line 5" x2="52.339" y2="0.508" transform="translate(472.844 145.508)" fill="none" stroke="#00d11c" stroke-miterlimit="10" stroke-width="3"/>
      <line id="Line_6-2" data-name="Line 6" x2="32.647" y2="20.568" transform="translate(394.138 27.936)" fill="none" stroke="#00d11c" stroke-miterlimit="10" stroke-width="3"/>
      <path id="Path_107-2" data-name="Path 107" d="M295.805,48.5l37.237-20.568,38.132-.351" transform="translate(154.009 0)" fill="none" stroke="#00d11c" stroke-miterlimit="10" stroke-width="3"/>
    </g>
  </g>
</svg>
